# xmcd
#
# Track frame offsets: 
#        150
#        13335
#        25910
#        38573
#
# Disc length: 720 seconds
#
# Revision: 0
# Processed by: cddbd v1.5.2PL0 Copyright (c) Steve Scherf et al.
# Submitted via: ExactAudioCopy v0.99pb4
#
DISCID=2702ce04
DTITLE=Buddy McNeil and the Magic Mirrors - Help Me Mama!
DYEAR=2010
DGENRE=Alternative
TTITLE0=Help Me Mama!
TTITLE1=Cry Cry Cry [R. Valens, R. Kuhn]
TTITLE2=Maybe Baby [B. Holly, N. Petty]
TTITLE3=Teenage Moon [J.P. 'The Big Bopper' Richardson]
EXTD=
EXTT0=
EXTT1=
EXTT2=
EXTT3=
PLAYORDER=
